<?xml version="1.0" encoding="UTF-8"?><svg id="Calque_1" xmlns="http://www.w3.org/2000/svg" xmlns:xlink="http://www.w3.org/1999/xlink" viewBox="0 0 371.68 286.38"><defs><style>.cls-1{fill:#efd09e;}.cls-2{fill:#fff;}.cls-3{fill:#1d1d1b;}.cls-4{fill:url(#Dégradé_sans_nom_16-13);}.cls-5{fill:url(#Dégradé_sans_nom_16-10);}.cls-6{fill:url(#Dégradé_sans_nom_16-11);}.cls-7{fill:url(#Dégradé_sans_nom_16-12);}.cls-8{fill:url(#Dégradé_sans_nom_30);}.cls-9{fill:url(#Dégradé_sans_nom_16);}.cls-10{fill:url(#Dégradé_sans_nom_15);}.cls-11{fill:url(#Dégradé_sans_nom_25);}.cls-12{fill:url(#Dégradé_sans_nom_4);}.cls-13{fill:url(#Dégradé_sans_nom_30-4);}.cls-14{fill:url(#Dégradé_sans_nom_30-3);}.cls-15{fill:url(#Dégradé_sans_nom_30-2);}.cls-16{fill:url(#Dégradé_sans_nom_30-5);}.cls-17{fill:url(#Dégradé_sans_nom_15-2);}.cls-18{fill:url(#Dégradé_sans_nom_15-3);}.cls-19{fill:url(#Dégradé_sans_nom_16-9);}.cls-20{fill:url(#Dégradé_sans_nom_16-4);}.cls-21{fill:url(#Dégradé_sans_nom_16-8);}.cls-22{fill:url(#Dégradé_sans_nom_16-5);}.cls-23{fill:url(#Dégradé_sans_nom_16-2);}.cls-24{fill:url(#Dégradé_sans_nom_16-7);}.cls-25{fill:url(#Dégradé_sans_nom_16-6);}.cls-26{fill:url(#Dégradé_sans_nom_16-3);}.cls-27{fill:url(#Dégradé_sans_nom_4-4);}.cls-28{fill:url(#Dégradé_sans_nom_4-3);}.cls-29{fill:url(#Dégradé_sans_nom_4-6);}.cls-30{fill:url(#Dégradé_sans_nom_4-5);}.cls-31{fill:url(#Dégradé_sans_nom_4-2);}</style><linearGradient id="Dégradé_sans_nom_15" x1="28.61" y1="245.24" x2="362.88" y2="245.24" gradientTransform="matrix(1, 0, 0, 1, 0, 0)" gradientUnits="userSpaceOnUse"><stop offset="0" stop-color="#1d71b8"/><stop offset=".52" stop-color="#36a9e1"/><stop offset="1" stop-color="#009fe3"/></linearGradient><linearGradient id="Dégradé_sans_nom_15-2" x1="57.81" y1="236.59" x2="371.68" y2="236.59" xlink:href="#Dégradé_sans_nom_15"/><linearGradient id="Dégradé_sans_nom_15-3" x1="0" y1="238.53" x2="156.4" y2="238.53" xlink:href="#Dégradé_sans_nom_15"/><linearGradient id="Dégradé_sans_nom_4" x1="16.96" y1="200.89" x2="71.41" y2="200.89" gradientTransform="matrix(1, 0, 0, 1, 0, 0)" gradientUnits="userSpaceOnUse"><stop offset="0" stop-color="#063"/><stop offset=".37" stop-color="#95c11f"/><stop offset="1" stop-color="#3aaa35"/></linearGradient><linearGradient id="Dégradé_sans_nom_4-2" x1="63.99" y1="174.38" x2="154.2" y2="174.38" xlink:href="#Dégradé_sans_nom_4"/><linearGradient id="Dégradé_sans_nom_4-3" x1="268.34" y1="194.21" x2="337.08" y2="194.21" xlink:href="#Dégradé_sans_nom_4"/><linearGradient id="Dégradé_sans_nom_30" x1="324.64" y1="225.29" x2="343.24" y2="225.29" gradientTransform="matrix(1, 0, 0, 1, 0, 0)" gradientUnits="userSpaceOnUse"><stop offset="0" stop-color="#706f6f"/><stop offset=".52" stop-color="#b2b2b2"/><stop offset="1" stop-color="#c6c6c6"/></linearGradient><linearGradient id="Dégradé_sans_nom_25" x1="211.44" y1="47.86" x2="262.76" y2="47.86" gradientTransform="matrix(1, 0, 0, 1, 0, 0)" gradientUnits="userSpaceOnUse"><stop offset="0" stop-color="#ffde00"/><stop offset=".52" stop-color="#f9b233"/><stop offset="1" stop-color="#fcea10"/></linearGradient><linearGradient id="Dégradé_sans_nom_16" x1="109.68" y1="98.94" x2="139.13" y2="98.94" gradientTransform="matrix(1, 0, 0, 1, 0, 0)" gradientUnits="userSpaceOnUse"><stop offset="0" stop-color="#b2b2b2"/><stop offset=".52" stop-color="#f6f6f6"/><stop offset="1" stop-color="#f6f6f6"/></linearGradient><linearGradient id="Dégradé_sans_nom_16-2" x1="122.17" y1="110.66" x2="151.62" y2="110.66" xlink:href="#Dégradé_sans_nom_16"/><linearGradient id="Dégradé_sans_nom_16-3" x1="99.36" y1="106.23" x2="140.75" y2="106.23" xlink:href="#Dégradé_sans_nom_16"/><linearGradient id="Dégradé_sans_nom_4-4" x1="145.35" y1="158.59" x2="224.33" y2="158.59" xlink:href="#Dégradé_sans_nom_4"/><linearGradient id="Dégradé_sans_nom_4-5" x1="204.58" y1="169.68" x2="285.91" y2="169.68" xlink:href="#Dégradé_sans_nom_4"/><linearGradient id="Dégradé_sans_nom_4-6" x1="165.29" y1="191.1" x2="240.22" y2="191.1" xlink:href="#Dégradé_sans_nom_4"/><linearGradient id="Dégradé_sans_nom_30-2" x1="230.03" y1="225.46" x2="255.54" y2="225.46" xlink:href="#Dégradé_sans_nom_30"/><linearGradient id="Dégradé_sans_nom_16-4" x1="181.12" y1="129.1" x2="230.03" y2="129.1" xlink:href="#Dégradé_sans_nom_16"/><linearGradient id="Dégradé_sans_nom_16-5" x1="138.94" y1="123.72" x2="168.39" y2="123.72" xlink:href="#Dégradé_sans_nom_16"/><linearGradient id="Dégradé_sans_nom_16-6" x1="153.66" y1="119.93" x2="183.11" y2="119.93" xlink:href="#Dégradé_sans_nom_16"/><linearGradient id="Dégradé_sans_nom_16-7" x1="123.22" y1="103.73" x2="152.67" y2="103.73" xlink:href="#Dégradé_sans_nom_16"/><linearGradient id="Dégradé_sans_nom_16-8" x1="104.13" y1="110.9" x2="133.58" y2="110.9" xlink:href="#Dégradé_sans_nom_16"/><linearGradient id="Dégradé_sans_nom_16-9" x1="158.79" y1="126.65" x2="171.8" y2="126.65" xlink:href="#Dégradé_sans_nom_16"/><linearGradient id="Dégradé_sans_nom_16-10" x1="189.54" y1="132.11" x2="208.5" y2="132.11" xlink:href="#Dégradé_sans_nom_16"/><linearGradient id="Dégradé_sans_nom_16-11" x1="205.57" y1="130.88" x2="248.78" y2="130.88" xlink:href="#Dégradé_sans_nom_16"/><linearGradient id="Dégradé_sans_nom_16-12" x1="205.57" y1="136.45" x2="254.48" y2="136.45" xlink:href="#Dégradé_sans_nom_16"/><linearGradient id="Dégradé_sans_nom_16-13" x1="196.6" y1="137.36" x2="220.4" y2="137.36" xlink:href="#Dégradé_sans_nom_16"/><linearGradient id="Dégradé_sans_nom_30-3" x1="253.49" y1="221.12" x2="293.83" y2="221.12" xlink:href="#Dégradé_sans_nom_30"/><linearGradient id="Dégradé_sans_nom_30-4" x1="295.73" y1="225.46" x2="328.1" y2="225.46" xlink:href="#Dégradé_sans_nom_30"/><linearGradient id="Dégradé_sans_nom_30-5" x1="278.98" y1="230.26" x2="308.68" y2="230.26" xlink:href="#Dégradé_sans_nom_30"/></defs><ellipse id="dessus" class="cls-10" cx="195.75" cy="245.24" rx="167.14" ry="41.14"/><ellipse id="dessus-2" class="cls-17" cx="214.74" cy="236.59" rx="156.93" ry="22.71"/><ellipse class="cls-1" cx="254.65" cy="232.87" rx="104.29" ry="17.08"/><ellipse class="cls-18" cx="78.2" cy="238.53" rx="78.2" ry="30.17"/><path class="cls-12" d="M71.41,228.22v-27.42c0-15.04-12.19-27.23-27.23-27.23h0c-15.04,0-27.23,12.19-27.23,27.23v27.42h54.45"/><path class="cls-31" d="M154.2,228.22v-63.18c0-24.91-20.19-45.11-45.11-45.11h0c-24.91,0-45.11,20.19-45.11,45.11v63.79l90.21-.61"/><path class="cls-28" d="M268.34,194.21h0c0-18.98,15.39-34.37,34.37-34.37h0c18.98,0,34.37,15.39,34.37,34.37h0v34.37h-68.74v0"/><path class="cls-2" d="M38.48,231.97c0-7.04-5.71-12.75-12.75-12.75s-12.75,5.71-12.75,12.75h25.51Z"/><path class="cls-2" d="M61.4,234.96c0-7.04-5.71-12.75-12.75-12.75s-12.75,5.71-12.75,12.75h25.51Z"/><path class="cls-2" d="M82.65,231.97c0-7.04-5.71-12.75-12.75-12.75s-12.75,5.71-12.75,12.75h25.51Z"/><path class="cls-2" d="M103.03,236.63c0-7.04-5.71-12.75-12.75-12.75s-12.75,5.71-12.75,12.75h25.51Z"/><path class="cls-2" d="M121.85,238.34c0-7.04-5.71-12.75-12.75-12.75s-12.75,5.71-12.75,12.75h25.51Z"/><path class="cls-2" d="M140.34,234.59c0-7.04-5.71-12.75-12.75-12.75s-12.75,5.71-12.75,12.75h25.51Z"/><path class="cls-2" d="M69.78,243.01c0-7.04-5.71-12.75-12.75-12.75s-12.75,5.71-12.75,12.75h25.51Z"/><path class="cls-2" d="M85.91,252.1c0-7.04-5.71-12.75-12.75-12.75s-12.75,5.71-12.75,12.75h25.51Z"/><path class="cls-2" d="M108.04,259.5c0-7.04-5.71-12.75-12.75-12.75s-12.75,5.71-12.75,12.75h25.51Z"/><path class="cls-8" d="M343.24,229.94c0-5.14-4.16-9.3-9.3-9.3s-9.3,4.16-9.3,9.3h18.6Z"/><circle class="cls-11" cx="237.1" cy="47.86" r="25.66"/><path class="cls-2" d="M185.5,275.26c0-7.04-5.71-12.75-12.75-12.75s-12.75,5.71-12.75,12.75h25.51Z"/><path class="cls-2" d="M143.64,267.59c0-7.04-5.71-12.75-12.75-12.75s-12.75,5.71-12.75,12.75h25.51Z"/><path class="cls-2" d="M166.42,272.26c0-7.04-5.71-12.75-12.75-12.75s-12.75,5.71-12.75,12.75h25.51Z"/><path class="cls-2" d="M207.32,278.58c0-7.04-5.71-12.75-12.75-12.75s-12.75,5.71-12.75,12.75h25.51Z"/><ellipse class="cls-9" cx="124.4" cy="98.94" rx="14.73" ry="5.86"/><ellipse class="cls-23" cx="136.89" cy="110.66" rx="14.73" ry="5.86"/><ellipse class="cls-26" cx="120.05" cy="106.23" rx="20.7" ry="6.41"/><path class="cls-27" d="M224.33,128.22c0-21.81-17.68-39.49-39.49-39.49h0c-21.81,0-39.49,17.68-39.49,39.49v100.24h78.98v-100.24Z"/><path class="cls-30" d="M285.91,151.56c0-22.46-18.21-40.67-40.67-40.67h0c-22.46,0-40.67,18.21-40.67,40.67v76.89h81.34v-76.89Z"/><path class="cls-29" d="M165.29,228.7v-37.73c0-20.69,16.77-37.46,37.46-37.46h0c20.69,0,37.46,16.77,37.46,37.46v37.73h-74.92Z"/><path class="cls-2" d="M156.68,238.21c0-7.04-5.71-12.75-12.75-12.75s-12.75,5.71-12.75,12.75h25.51Z"/><path class="cls-15" d="M255.54,231.84c0-7.04-5.71-12.75-12.75-12.75s-12.75,5.71-12.75,12.75h25.51Z"/><ellipse class="cls-20" cx="205.57" cy="129.1" rx="24.45" ry="5.38"/><ellipse class="cls-22" cx="153.66" cy="123.72" rx="14.73" ry="5.86"/><ellipse class="cls-25" cx="168.39" cy="119.93" rx="14.73" ry="5.86"/><ellipse class="cls-24" cx="137.94" cy="103.73" rx="14.73" ry="5.86"/><ellipse class="cls-21" cx="118.86" cy="110.9" rx="14.73" ry="5.86"/><ellipse class="cls-19" cx="165.29" cy="126.65" rx="6.5" ry="2.93"/><ellipse class="cls-5" cx="199.02" cy="132.11" rx="9.48" ry="5.71"/><ellipse class="cls-6" cx="227.18" cy="130.88" rx="21.6" ry="10.95"/><ellipse class="cls-7" cx="230.03" cy="136.45" rx="24.45" ry="5.38"/><ellipse class="cls-4" cx="208.5" cy="137.36" rx="11.9" ry="5.25"/><path class="cls-2" d="M341.13,245.72c0-3.97-3.22-7.19-7.19-7.19s-7.19,3.22-7.19,7.19h14.38Z"/><path class="cls-2" d="M352.97,242.94c0-3.97-3.22-7.19-7.19-7.19s-7.19,3.22-7.19,7.19h14.38Z"/><path class="cls-2" d="M363.69,240.76c0-3.97-3.22-7.19-7.19-7.19s-7.19,3.22-7.19,7.19h14.38Z"/><path class="cls-14" d="M293.83,233.01c0-13.14-9.03-23.79-20.17-23.79s-20.17,10.65-20.17,23.79h40.34Z"/><path class="cls-13" d="M328.1,233.64c0-9.03-7.25-16.36-16.19-16.36s-16.19,7.32-16.19,16.36h32.38Z"/><path class="cls-16" d="M308.68,237.68c0-8.2-6.65-14.85-14.85-14.85s-14.85,6.65-14.85,14.85h29.7Z"/><g><path class="cls-3" d="M3.44,5.98h1.34v28.86H22.01v1.18H3.44V5.98Z"/><path class="cls-3" d="M26.04,5.98h19.32v1.18H27.38v12.31h16.51v1.18H27.38v14.2h18.4v1.18H26.04V5.98Z"/><path class="cls-3" d="M48.38,26.35h1.43c.38,5.8,4.41,8.95,10.67,8.95,5.84,0,8.61-3.32,8.65-7.14,.04-5.12-3.49-6.39-10.42-7.65-5.75-1.05-9.16-2.86-9.16-7.73s4.12-7.23,9.58-7.23c5.92,0,9.91,3.02,10.29,8.49h-1.43c-.42-4.45-3.19-7.31-8.86-7.31-4.92,0-8.15,2.27-8.15,6.05,0,4.7,3.49,5.67,9.2,6.76,6.89,1.3,10.38,3.23,10.38,8.61,0,4.58-3.66,8.32-10.08,8.32s-11.72-3.28-12.1-10.12Z"/><path class="cls-3" d="M91.73,7.16h-10.71v-1.18h22.77v1.18h-10.71v28.86h-1.34V7.16Z"/><path class="cls-3" d="M107.81,5.98h10.96c6.01,0,9.54,2.69,9.54,8.11,0,4.62-2.35,7.06-5.92,8.07v.08c7.18,1.55,5.08,13.02,6.72,13.53v.25h-1.39c-1.6-1.26,.92-13.23-8.15-13.23h-10.42v13.23h-1.34V5.98Zm10.54,15.63c5.29,0,8.61-2.31,8.61-7.52,0-4.79-2.77-6.93-8.19-6.93h-9.62v14.45h9.2Z"/><path class="cls-3" d="M132.47,20.98c0-9.03,5.54-15.46,13.82-15.46s13.82,6.43,13.82,15.46-5.54,15.5-13.82,15.5-13.82-6.47-13.82-15.5Zm13.82,14.32c7.1,0,12.39-5.75,12.39-14.32s-5.29-14.28-12.39-14.28-12.39,5.71-12.39,14.28,5.29,14.32,12.39,14.32Z"/><path class="cls-3" d="M165.39,5.98h1.34v30.04h-1.34V5.98Z"/><path class="cls-3" d="M171.57,26.35h1.43c.38,5.8,4.41,8.95,10.67,8.95,5.84,0,8.61-3.32,8.65-7.14,.04-5.12-3.49-6.39-10.42-7.65-5.75-1.05-9.16-2.86-9.16-7.73s4.12-7.23,9.58-7.23c5.92,0,9.91,3.02,10.29,8.49h-1.43c-.42-4.45-3.19-7.31-8.86-7.31-4.92,0-8.15,2.27-8.15,6.05,0,4.7,3.49,5.67,9.2,6.76,6.89,1.3,10.38,3.23,10.38,8.61,0,4.58-3.66,8.32-10.08,8.32s-11.72-3.28-12.1-10.12Z"/><path class="cls-3" d="M1.89,71.46c0-9.12,5.38-15.54,13.57-15.54,6.26,0,10.5,3.78,11.47,9.33h-1.43c-.76-4.58-4.28-8.15-10.08-8.15-7.6,0-12.18,6.18-12.18,14.37s4.71,14.24,12.06,14.24c6.55,0,10.04-4.45,10.59-9.62h1.43c-.84,6.39-5.33,10.8-12.01,10.8-7.9,0-13.4-6.17-13.4-15.42Z"/><path class="cls-3" d="M32.09,56.38h1.34v30.04h-1.34v-30.04Z"/><path class="cls-3" d="M40.32,56.38h10.96c6.01,0,9.54,2.69,9.54,8.11,0,4.62-2.35,7.06-5.92,8.07v.08c7.18,1.55,5.08,13.02,6.72,13.53v.25h-1.39c-1.6-1.26,.92-13.23-8.15-13.23h-10.42v13.23h-1.34v-30.04Zm10.54,15.63c5.29,0,8.61-2.31,8.61-7.52,0-4.79-2.77-6.93-8.19-6.93h-9.62v14.45h9.2Z"/><path class="cls-3" d="M64.97,71.38c0-9.03,5.54-15.46,13.82-15.46s13.82,6.43,13.82,15.46c0,5.17-1.81,9.54-4.96,12.27l3.7,3.7-.84,.84-3.78-3.78c-2.18,1.6-4.87,2.48-7.94,2.48-8.28,0-13.82-6.47-13.82-15.5Zm13.82,14.32c2.65,0,5.04-.8,7.01-2.23l-4.28-4.28,.84-.84,4.37,4.37c2.73-2.52,4.45-6.47,4.45-11.34,0-8.57-5.29-14.28-12.39-14.28s-12.39,5.71-12.39,14.28,5.29,14.32,12.39,14.32Z"/><path class="cls-3" d="M97.65,76v-19.62h1.34v19.62c0,6.55,3.11,9.7,9.45,9.7s9.45-3.15,9.45-9.7v-19.62h1.34v19.62c0,6.97-3.28,10.88-10.8,10.88s-10.8-3.91-10.8-10.88Z"/><path class="cls-3" d="M125.87,56.38h19.32v1.18h-17.98v12.31h16.51v1.18h-16.51v14.2h18.4v1.18h-19.74v-30.04Z"/><path class="cls-3" d="M148.22,76.75h1.43c.38,5.8,4.41,8.95,10.67,8.95,5.84,0,8.61-3.32,8.65-7.14,.04-5.12-3.49-6.39-10.42-7.65-5.75-1.05-9.16-2.86-9.16-7.73s4.12-7.23,9.58-7.23c5.92,0,9.91,3.02,10.29,8.49h-1.43c-.42-4.45-3.19-7.31-8.86-7.31-4.92,0-8.15,2.27-8.15,6.05,0,4.7,3.49,5.67,9.2,6.76,6.89,1.3,10.38,3.23,10.38,8.61,0,4.58-3.66,8.32-10.08,8.32s-11.72-3.28-12.1-10.12Z"/></g></svg>